<?xml version="1.0" encoding="UTF-8"?>
<svg xmlns="http://www.w3.org/2000/svg" xmlns:xlink="http://www.w3.org/1999/xlink" width="30px" height="79px" viewBox="0 0 30 79" version="1.1">
<defs>
<clipPath id="clip1">
  <path d="M 5 31 L 13 31 L 13 61 L 5 61 Z M 5 31 "/>
</clipPath>
<clipPath id="clip2">
  <path d="M 9.789062 29.042969 C 13.25 28.835938 -2.324219 59.238281 9.789062 60.277344 C 28.757812 61.902344 21.980469 62.507812 19.941406 29.042969 "/>
</clipPath>
<clipPath id="clip3">
  <path d="M 0 0 L 22 0 L 22 30 L 0 30 Z M 0 0 "/>
</clipPath>
<clipPath id="clip4">
  <path d="M 29.171875 14.804688 C 29.171875 6.941406 22.765625 0.566406 14.867188 0.566406 C 6.964844 0.566406 0.558594 6.941406 0.558594 14.804688 C 0.558594 22.667969 6.964844 29.042969 14.867188 29.042969 C 22.765625 29.042969 29.171875 22.667969 29.171875 14.804688 Z M 29.171875 14.804688 "/>
</clipPath>
</defs>
<g id="surface1">
<path style=" stroke:none;fill-rule:evenodd;fill:rgb(100%,58.431375%,13.725491%);fill-opacity:1;" d="M 9.789062 29.042969 C 13.25 28.835938 -2.324219 59.238281 9.789062 60.277344 C 28.757812 61.902344 21.980469 62.507812 19.941406 29.042969 "/>
<g clip-path="url(#clip1)" clip-rule="nonzero">
<g clip-path="url(#clip2)" clip-rule="evenodd">
<path style=" stroke:none;fill-rule:evenodd;fill:rgb(89.411765%,44.705883%,0%);fill-opacity:1;" d="M 9.835938 31.800781 C 9.835938 31.800781 6.953125 60.863281 12.558594 60.863281 L 3.328125 60.863281 L 3.328125 32.257812 Z M 9.835938 31.800781 "/>
</g>
</g>
<path style="fill:none;stroke-width:2.5;stroke-linecap:round;stroke-linejoin:round;stroke:rgb(0%,0%,0%);stroke-opacity:1;stroke-miterlimit:1.5;" d="M 2703.001261 2938.998764 C 2710.499959 2938.548011 2676.755819 3004.740635 2703.001261 3007.002903 C 2744.10022 3010.540888 2729.415975 3011.859127 2724.998006 2938.998764 " transform="matrix(0.461538,0,0,0.459301,-1237.749981,-1320.842348)"/>
<path style=" stroke:none;fill-rule:evenodd;fill:rgb(100%,100%,100%);fill-opacity:1;" d="M 29.171875 14.804688 C 29.171875 6.941406 22.765625 0.566406 14.867188 0.566406 C 6.964844 0.566406 0.558594 6.941406 0.558594 14.804688 C 0.558594 22.667969 6.964844 29.042969 14.867188 29.042969 C 22.765625 29.042969 29.171875 22.667969 29.171875 14.804688 Z M 29.171875 14.804688 "/>
<g clip-path="url(#clip3)" clip-rule="nonzero">
<g clip-path="url(#clip4)" clip-rule="evenodd">
<path style=" stroke:none;fill-rule:evenodd;fill:rgb(0%,0%,0%);fill-opacity:0.0901961;" d="M 9.835938 0.105469 C 4.203125 -0.445312 0.378906 33.855469 21.460938 27.191406 L 5.882812 35.214844 L -5.570312 13.1875 Z M 9.835938 0.105469 "/>
</g>
</g>
<path style="fill:none;stroke-width:2.66;stroke-linecap:round;stroke-linejoin:round;stroke:rgb(0%,0%,0%);stroke-opacity:1;stroke-miterlimit:1.5;" d="M 2746.996854 2907.999081 C 2746.996854 2889.774458 2732.221149 2874.999205 2714.003786 2874.999205 C 2695.777414 2874.999205 2681.001709 2889.774458 2681.001709 2907.999081 C 2681.001709 2926.223705 2695.777414 2940.998958 2714.003786 2940.998958 C 2732.221149 2940.998958 2746.996854 2926.223705 2746.996854 2907.999081 Z M 2746.996854 2907.999081 " transform="matrix(0.433566,0,0,0.431465,-1161.833827,-1239.894208)"/>
<path style="fill:none;stroke-width:2.41;stroke-linecap:round;stroke-linejoin:round;stroke:rgb(0%,0%,0%);stroke-opacity:1;stroke-miterlimit:1.5;" d="M 2695.003823 2954.230995 C 2692.346271 2953.992495 2674.462807 2971.259933 2675.901609 2996.501239 " transform="matrix(0.461538,0,0,0.491351,-1234.011981,-1422.162334)"/>
<path style="fill:none;stroke-width:2.41;stroke-linecap:round;stroke-linejoin:round;stroke:rgb(0%,0%,0%);stroke-opacity:1;stroke-miterlimit:1.5;" d="M 2695.000854 2954.232869 C 2692.351766 2953.986418 2674.459839 2971.261806 2675.898641 2996.503113 " transform="matrix(-0.461538,0,0,0.491351,1264.166861,-1422.975754)"/>
<path style=" stroke:none;fill-rule:evenodd;fill:rgb(0%,0%,0%);fill-opacity:1;" d="M 16.074219 12.96875 C 16.074219 11.445312 15.453125 10.210938 14.691406 10.210938 C 13.925781 10.210938 13.304688 11.445312 13.304688 12.96875 C 13.304688 14.488281 13.925781 15.722656 14.691406 15.722656 C 15.453125 15.722656 16.074219 14.488281 16.074219 12.96875 Z M 16.074219 12.96875 "/>
<path style=" stroke:none;fill-rule:evenodd;fill:rgb(0%,0%,0%);fill-opacity:1;" d="M 23.921875 12.96875 C 23.921875 11.445312 23.300781 10.210938 22.535156 10.210938 C 21.773438 10.210938 21.152344 11.445312 21.152344 12.96875 C 21.152344 14.488281 21.773438 15.722656 22.535156 15.722656 C 23.300781 15.722656 23.921875 14.488281 23.921875 12.96875 Z M 23.921875 12.96875 "/>
<path style="fill:none;stroke-width:2.5;stroke-linecap:round;stroke-linejoin:round;stroke:rgb(0%,0%,0%);stroke-opacity:1;stroke-miterlimit:1.5;" d="M 2701.003866 3007.002903 L 2701.003866 3045.997273 " transform="matrix(0.461538,0,0,0.459301,-1237.749981,-1320.842348)"/>
<path style="fill:none;stroke-width:2.5;stroke-linecap:round;stroke-linejoin:round;stroke:rgb(0%,0%,0%);stroke-opacity:1;stroke-miterlimit:1.5;" d="M 2723.00061 3008.278619 L 2723.00061 3045.997273 " transform="matrix(0.461538,0,0,0.459301,-1237.749981,-1320.842348)"/>
<path style="fill-rule:evenodd;fill:rgb(0%,0%,0%);fill-opacity:1;stroke-width:9;stroke-linecap:round;stroke-linejoin:round;stroke:rgb(0%,0%,0%);stroke-opacity:1;stroke-miterlimit:1.5;" d="M 2716.995266 2952.01075 C 2716.995266 2950.352318 2715.649561 2949.000058 2713.999169 2949.000058 C 2712.348776 2949.000058 2711.003072 2950.352318 2711.003072 2952.01075 C 2711.003072 2953.669182 2712.348776 2954.995927 2713.999169 2954.995927 C 2715.649561 2954.995927 2716.995266 2953.669182 2716.995266 2952.01075 Z M 2716.995266 2952.01075 " transform="matrix(0.153846,0,0,0.1531,-402.674617,-416.937816)"/>
<path style="fill-rule:evenodd;fill:rgb(0%,0%,0%);fill-opacity:1;stroke-width:9;stroke-linecap:round;stroke-linejoin:round;stroke:rgb(0%,0%,0%);stroke-opacity:1;stroke-miterlimit:1.5;" d="M 2716.995266 2951.988646 C 2716.995266 2950.355729 2715.649561 2949.003469 2713.999169 2949.003469 C 2712.348776 2949.003469 2711.003072 2950.355729 2711.003072 2951.988646 C 2711.003072 2953.647078 2712.348776 2954.999338 2713.999169 2954.999338 C 2715.649561 2954.999338 2716.995266 2953.647078 2716.995266 2951.988646 Z M 2716.995266 2951.988646 " transform="matrix(0.153846,0,0,0.1531,-402.674617,-407.797713)"/>
<path style="fill-rule:evenodd;fill:rgb(0%,0%,0%);fill-opacity:1;stroke-width:9;stroke-linecap:round;stroke-linejoin:round;stroke:rgb(0%,0%,0%);stroke-opacity:1;stroke-miterlimit:1.5;" d="M 2716.995266 2951.989272 C 2716.995266 2950.33084 2715.649561 2949.004095 2713.999169 2949.004095 C 2712.348776 2949.004095 2711.003072 2950.33084 2711.003072 2951.989272 C 2711.003072 2953.647704 2712.348776 2954.999964 2713.999169 2954.999964 C 2715.649561 2954.999964 2716.995266 2953.647704 2716.995266 2951.989272 Z M 2716.995266 2951.989272 " transform="matrix(0.153846,0,0,0.1531,-402.674617,-398.602496)"/>
</g>
</svg>
